<svg width="256" height="59" viewBox="0 0 256 59" fill="none" xmlns="http://www.w3.org/2000/svg">
<path d="M213.931 15.75C213.407 15.75 212.968 15.3283 212.953 14.8039C212.387 -4.93468 239.614 -4.93457 239.048 14.8039C239.033 15.3283 238.594 15.75 238.069 15.75L234.997 15.75C234.446 15.75 234.001 15.294 233.974 14.7435C233.265 0.272948 218.17 0.525543 217.522 14.7388C217.497 15.2914 217.051 15.75 216.498 15.75L213.931 15.75Z" fill="#B2B2B2"/>
<path d="M240 16.7665H241.299C245.776 16.7665 246.722 23.2134 246.806 27.6898V27.6898C246.89 32.1813 245.635 38.2303 241.143 38.2303H240V16.7665Z" fill="#B2B2B2"/>
<path d="M212.474 16.7665H211.176C206.699 16.7665 205.753 23.2134 205.669 27.6898V27.6898C205.584 32.1813 206.84 38.2303 211.332 38.2303H212.474V16.7665Z" fill="#B2B2B2"/>
<path d="M239.19 16.75H236C234.343 16.75 233 18.0932 233 19.75V35.2139C233 36.8707 234.343 38.2139 236 38.2139H239.19V16.75Z" fill="#B2B2B2"/>
<path d="M213.285 16.75H216.475C218.131 16.75 219.475 18.0932 219.475 19.75V35.2139C219.475 36.8707 218.131 38.2139 216.475 38.2139H213.285V16.75Z" fill="#B2B2B2"/>
<path d="M1.19752 46.2676C0.73294 45.819 0.720017 45.0787 1.16866 44.6141V44.6141C1.6173 44.1495 2.3576 44.1366 2.82218 44.5852L4.50457 46.2099L2.87991 47.8923L1.19752 46.2676Z" fill="#CCCCCC"/>
<rect x="1.66394" y="48.3923" width="4.6776" height="5.847" rx="1" transform="rotate(-46 1.66394 48.3923)" fill="#B2B2B2"/>
<path d="M5.00012 47.912C9.68279 55.8165 30.7125 58.4646 48.4918 56.6093C66.2711 54.754 82.9918 47.912 100.034 47.912C117.077 47.912 137.369 54.9716 167.492 56.6093C197.615 58.247 208.066 52.1093 211.492 47.6093C214.918 43.1093 214.918 37 214.918 37" stroke="#B2B2B2" stroke-width="2"/>
</svg>
