<svg width="37" height="42" viewBox="0 0 37 42" fill="none" xmlns="http://www.w3.org/2000/svg">
<path fill-rule="evenodd" clip-rule="evenodd" d="M3.80637 17.7841C3.91377 17.6847 4.04137 17.606 4.18184 17.5522C4.32231 17.4984 4.47291 17.4708 4.62499 17.4708C4.77708 17.4708 4.92767 17.4984 5.06814 17.5522C5.20862 17.606 5.33621 17.6847 5.44362 17.7841L18.5 29.8281L31.5564 17.7841C31.6639 17.6849 31.7915 17.6063 31.932 17.5526C32.0724 17.4989 32.223 17.4713 32.375 17.4713C32.527 17.4713 32.6776 17.4989 32.818 17.5526C32.9585 17.6063 33.0861 17.6849 33.1936 17.7841C33.3011 17.8832 33.3864 18.0009 33.4446 18.1305C33.5028 18.26 33.5327 18.3989 33.5327 18.5391C33.5327 18.6793 33.5028 18.8181 33.4446 18.9477C33.3864 19.0772 33.3011 19.1949 33.1936 19.2941L19.3186 32.091C19.2112 32.1903 19.0836 32.2691 18.9431 32.3228C18.8027 32.3766 18.6521 32.4043 18.5 32.4043C18.3479 32.4043 18.1973 32.3766 18.0568 32.3228C17.9164 32.2691 17.7888 32.1903 17.6814 32.091L3.80637 19.2941C3.69869 19.195 3.61326 19.0774 3.55497 18.9478C3.49668 18.8182 3.46667 18.6793 3.46667 18.5391C3.46667 18.3988 3.49668 18.2599 3.55497 18.1304C3.61326 18.0008 3.69869 17.8831 3.80637 17.7841V17.7841Z" fill="#325A92"/>
<path fill-rule="evenodd" clip-rule="evenodd" d="M3.7656 16.0633C3.873 15.964 4.00059 15.8852 4.14107 15.8314C4.28154 15.7777 4.43213 15.75 4.58422 15.75C4.73631 15.75 4.8869 15.7777 5.02737 15.8314C5.16785 15.8852 5.29544 15.964 5.40285 16.0633L18.4592 28.1073L31.5156 16.0633C31.6231 15.9641 31.7507 15.8855 31.8912 15.8318C32.0316 15.7782 32.1822 15.7506 32.3342 15.7506C32.4862 15.7506 32.6368 15.7782 32.7773 15.8318C32.9177 15.8855 33.0453 15.9641 33.1528 16.0633C33.2603 16.1624 33.3456 16.2802 33.4038 16.4097C33.462 16.5392 33.4919 16.6781 33.4919 16.8183C33.4919 16.9585 33.462 17.0974 33.4038 17.2269C33.3456 17.3565 33.2603 17.4742 33.1528 17.5733L19.2778 30.3702C19.1704 30.4695 19.0428 30.5483 18.9024 30.6021C18.7619 30.6558 18.6113 30.6835 18.4592 30.6835C18.3071 30.6835 18.1565 30.6558 18.0161 30.6021C17.8756 30.5483 17.748 30.4695 17.6406 30.3702L3.7656 17.5733C3.65792 17.4743 3.57249 17.3566 3.5142 17.227C3.45591 17.0975 3.4259 16.9586 3.4259 16.8183C3.4259 16.678 3.45591 16.5392 3.5142 16.4096C3.57249 16.28 3.65792 16.1624 3.7656 16.0633V16.0633Z" fill="#0A69EB"/>
<path fill-rule="evenodd" clip-rule="evenodd" d="M3.80637 9.90906C3.91377 9.80975 4.04137 9.73096 4.18184 9.6772C4.32231 9.62344 4.47291 9.59576 4.62499 9.59576C4.77708 9.59576 4.92767 9.62344 5.06814 9.6772C5.20862 9.73096 5.33621 9.80975 5.44362 9.90906L18.5 21.9531L31.5564 9.90906C31.6639 9.80991 31.7915 9.73126 31.932 9.6776C32.0724 9.62394 32.223 9.59632 32.375 9.59632C32.527 9.59632 32.6776 9.62394 32.818 9.6776C32.9585 9.73126 33.0861 9.80991 33.1936 9.90906C33.3011 10.0082 33.3864 10.1259 33.4446 10.2555C33.5028 10.385 33.5327 10.5239 33.5327 10.6641C33.5327 10.8043 33.5028 10.9431 33.4446 11.0727C33.3864 11.2022 33.3011 11.3199 33.1936 11.4191L19.3186 24.216C19.2112 24.3153 19.0836 24.3941 18.9431 24.4478C18.8027 24.5016 18.6521 24.5293 18.5 24.5293C18.3479 24.5293 18.1973 24.5016 18.0568 24.4478C17.9164 24.3941 17.7888 24.3153 17.6814 24.216L3.80637 11.4191C3.69869 11.32 3.61326 11.2024 3.55497 11.0728C3.49668 10.9432 3.46667 10.8043 3.46667 10.6641C3.46667 10.5238 3.49668 10.3849 3.55497 10.2554C3.61326 10.1258 3.69869 10.0081 3.80637 9.90906V9.90906Z" fill="#325A92"/>
<path fill-rule="evenodd" clip-rule="evenodd" d="M3.7656 8.1883C3.873 8.08899 4.00059 8.01019 4.14107 7.95643C4.28154 7.90267 4.43213 7.875 4.58422 7.875C4.73631 7.875 4.8869 7.90267 5.02737 7.95643C5.16785 8.01019 5.29544 8.08899 5.40285 8.1883L18.4592 20.2323L31.5156 8.1883C31.6231 8.08915 31.7507 8.0105 31.8912 7.95684C32.0316 7.90318 32.1822 7.87556 32.3342 7.87556C32.4862 7.87556 32.6368 7.90318 32.7773 7.95684C32.9177 8.0105 33.0453 8.08915 33.1528 8.1883C33.2603 8.28745 33.3456 8.40515 33.4038 8.5347C33.462 8.66425 33.4919 8.80309 33.4919 8.94331C33.4919 9.08353 33.462 9.22238 33.4038 9.35192C33.3456 9.48147 33.2603 9.59918 33.1528 9.69833L19.2778 22.4952C19.1704 22.5945 19.0428 22.6733 18.9024 22.7271C18.7619 22.7808 18.6113 22.8085 18.4592 22.8085C18.3071 22.8085 18.1565 22.7808 18.0161 22.7271C17.8756 22.6733 17.748 22.5945 17.6406 22.4952L3.7656 9.69833C3.65792 9.59927 3.57249 9.48159 3.5142 9.35203C3.45591 9.22247 3.4259 9.08358 3.4259 8.94331C3.4259 8.80304 3.45591 8.66415 3.5142 8.53459C3.57249 8.40504 3.65792 8.28736 3.7656 8.1883V8.1883Z" fill="#0A69EB"/>
</svg>
