<svg width="157" height="122" viewBox="0 0 157 122" fill="none" xmlns="http://www.w3.org/2000/svg">
<g filter="url(#filter0_d_101_17)">
<rect x="4" y="31" width="5" height="17" rx="2.5" fill="white"/>
<rect x="22" y="23" width="5" height="14" rx="2.5" fill="white"/>
<rect x="4" y="51" width="5" height="17" rx="2.5" fill="white"/>
<rect x="13" y="63" width="5" height="8" rx="2.5" fill="white"/>
<rect x="31" y="49" width="5" height="8" rx="2.5" fill="white"/>
<rect x="49" y="31" width="5" height="11" rx="2.5" fill="white"/>
<rect x="31" y="60" width="5" height="11" rx="2.5" fill="white"/>
<rect x="13" y="23" width="5" height="8" rx="2.5" fill="white"/>
<rect x="13" y="35" width="5" height="25" rx="2.5" fill="white"/>
<rect x="22" y="40" width="5" height="31" rx="2.5" fill="white"/>
<rect x="40" y="23" width="5" height="25" rx="2.5" fill="white"/>
<rect x="40" y="51" width="5" height="20" rx="2.5" fill="white"/>
<rect x="49" y="44" width="5" height="24" rx="2.5" fill="white"/>
<rect x="31" y="23" width="5" height="23" rx="2.5" fill="white"/>
<rect width="5" height="17" rx="2.5" transform="matrix(-1 0 0 1 99 31)" fill="white"/>
<rect width="5" height="14" rx="2.5" transform="matrix(-1 0 0 1 81 23)" fill="white"/>
<rect width="5" height="17" rx="2.5" transform="matrix(-1 0 0 1 99 51)" fill="white"/>
<rect width="5" height="8" rx="2.5" transform="matrix(-1 0 0 1 90 63)" fill="white"/>
<rect width="5" height="8" rx="2.5" transform="matrix(-1 0 0 1 72 49)" fill="white"/>
<rect width="5" height="11" rx="2.5" transform="matrix(-1 0 0 1 72 60)" fill="white"/>
<rect width="5" height="8" rx="2.5" transform="matrix(-1 0 0 1 90 23)" fill="white"/>
<rect width="5" height="25" rx="2.5" transform="matrix(-1 0 0 1 90 35)" fill="white"/>
<rect width="5" height="31" rx="2.5" transform="matrix(-1 0 0 1 81 40)" fill="white"/>
<rect width="5" height="25" rx="2.5" transform="matrix(-1 0 0 1 63 23)" fill="white"/>
<rect width="5" height="20" rx="2.5" transform="matrix(-1 0 0 1 63 51)" fill="white"/>
<rect width="5" height="23" rx="2.5" transform="matrix(-1 0 0 1 72 23)" fill="white"/>
<rect x="103" y="23" width="5" height="14" rx="2.5" fill="white"/>
<rect x="112" y="49" width="5" height="8" rx="2.5" fill="white"/>
<rect x="130" y="28" width="5" height="14" rx="2.5" fill="white"/>
<rect x="112" y="60" width="5" height="11" rx="2.5" fill="white"/>
<rect x="103" y="40" width="5" height="31" rx="2.5" fill="white"/>
<rect x="121" y="23" width="5" height="25" rx="2.5" fill="white"/>
<rect x="121" y="51" width="5" height="20" rx="2.5" fill="white"/>
<rect x="130" y="44" width="5" height="16" rx="2.5" fill="white"/>
<rect width="5" height="8" rx="2.5" transform="matrix(-1 0 0 1 135 63)" fill="white"/>
<rect x="139" y="23" width="5" height="19" rx="2.5" fill="white"/>
<rect x="148" y="28" width="5" height="20" rx="2.5" fill="white"/>
<rect x="148" y="51" width="5" height="17" rx="2.5" fill="white"/>
<rect x="139" y="44" width="5" height="11" rx="2.5" fill="white"/>
<rect x="139" y="57" width="5" height="14" rx="2.5" fill="white"/>
<rect x="112" y="23" width="5" height="23" rx="2.5" fill="white"/>
</g>
<g filter="url(#filter1_d_101_17)">
<path d="M44.1271 58C42.5665 99.3024 114.947 99.3024 113.378 58H117.928C118.061 105.539 39.2024 104.552 39.0723 58H44.1271Z" fill="#0A69EB"/>
<path d="M36 54.5C36 50.3579 39.3579 47 43.5 47H46.241V62H43.5C39.3579 62 36 58.6421 36 54.5Z" fill="#325A92"/>
<path d="M121 54.5C121 50.3579 117.642 47 113.5 47H110.759V62H113.5C117.642 62 121 58.6421 121 54.5Z" fill="#325A92"/>
<path d="M69.7952 89H87.2048C84.8018 95.2399 84.805 98.535 87.2048 104H69.7952C72.45 98.3396 72.3975 95.0465 69.7952 89Z" fill="#0A69EB"/>
<mask id="mask0_101_17" style="mask-type:alpha" maskUnits="userSpaceOnUse" x="36" y="95" width="85" height="19">
<path d="M36 105.09C36 98.8057 42.3332 94.5199 48.3067 96.4726C70.3902 103.692 86.5881 103.917 108.667 96.5962C114.629 94.6191 121 98.8761 121 105.158C121 110.041 117.041 114 112.158 114H44.9098C39.9891 114 36 110.011 36 105.09Z" fill="#0A69EB"/>
</mask>
<g mask="url(#mask0_101_17)">
<path d="M36 106.476C36 101.477 40.7888 97.8812 45.6369 99.1005C70.3047 105.305 87.2595 105.609 111.316 99.279C116.153 98.0061 121 101.566 121 106.568C121 110.672 117.672 114 113.568 114H43.5242C39.3687 114 36 110.631 36 106.476Z" fill="#0A69EB"/>
<path d="M36 107.5C68.9324 113.196 87.8253 113.233 121 107.5V115.5H36V107.5Z" fill="#325A92"/>
</g>
<mask id="mask1_101_17" style="mask-type:alpha" maskUnits="userSpaceOnUse" x="48" y="0" width="61" height="84">
<rect x="48.2892" width="60.4217" height="83.3492" rx="20" fill="url(#paint0_linear_101_17)"/>
</mask>
<g mask="url(#mask1_101_17)">
<rect x="48.2892" width="60.4217" height="83.3492" rx="20" fill="#0A69EB"/>
<path d="M48.2892 74C56.482 79 100.518 79 108.711 74V92H48.2892V74Z" fill="#325A92"/>
<path d="M48.2892 24.3492H108.711V28.0952H48.2892V24.3492Z" fill="#1E2327"/>
<rect x="48.2892" y="34.6508" width="60.4217" height="3.74603" fill="#1E2327"/>
<rect x="48.2892" y="44.9523" width="60.4217" height="3.74603" fill="#1E2327"/>
<rect x="48.2892" y="14.0476" width="60.4217" height="3.74603" fill="#1E2327"/>
</g>
</g>
<defs>
<filter id="filter0_d_101_17" x="0" y="23" width="157" height="56" filterUnits="userSpaceOnUse" color-interpolation-filters="sRGB">
<feFlood flood-opacity="0" result="BackgroundImageFix"/>
<feColorMatrix in="SourceAlpha" type="matrix" values="0 0 0 0 0 0 0 0 0 0 0 0 0 0 0 0 0 0 127 0" result="hardAlpha"/>
<feOffset dy="4"/>
<feGaussianBlur stdDeviation="2"/>
<feComposite in2="hardAlpha" operator="out"/>
<feColorMatrix type="matrix" values="0 0 0 0 0 0 0 0 0 0 0 0 0 0 0 0 0 0 0.25 0"/>
<feBlend mode="normal" in2="BackgroundImageFix" result="effect1_dropShadow_101_17"/>
<feBlend mode="normal" in="SourceGraphic" in2="effect1_dropShadow_101_17" result="shape"/>
</filter>
<filter id="filter1_d_101_17" x="32" y="0" width="93" height="122" filterUnits="userSpaceOnUse" color-interpolation-filters="sRGB">
<feFlood flood-opacity="0" result="BackgroundImageFix"/>
<feColorMatrix in="SourceAlpha" type="matrix" values="0 0 0 0 0 0 0 0 0 0 0 0 0 0 0 0 0 0 127 0" result="hardAlpha"/>
<feOffset dy="4"/>
<feGaussianBlur stdDeviation="2"/>
<feComposite in2="hardAlpha" operator="out"/>
<feColorMatrix type="matrix" values="0 0 0 0 0 0 0 0 0 0 0 0 0 0 0 0 0 0 0.25 0"/>
<feBlend mode="normal" in2="BackgroundImageFix" result="effect1_dropShadow_101_17"/>
<feBlend mode="normal" in="SourceGraphic" in2="effect1_dropShadow_101_17" result="shape"/>
</filter>
<linearGradient id="paint0_linear_101_17" x1="78.5" y1="0" x2="78.5" y2="83.3492" gradientUnits="userSpaceOnUse">
<stop stop-color="#0A69EB"/>
<stop offset="1" stop-color="#1E2327"/>
</linearGradient>
</defs>
</svg>
